<mxfile host="Electron" agent="Mozilla/5.0 (X11; Linux x86_64) AppleWebKit/537.36 (KHTML, like Gecko) draw.io/24.7.17 Chrome/128.0.6613.36 Electron/32.0.1 Safari/537.36" version="24.7.17">
  <diagram name="Page-1" id="9KSis5nzTVZvkQyovgwK">
    <mxGraphModel dx="1875" dy="1168" grid="1" gridSize="10" guides="1" tooltips="1" connect="1" arrows="1" fold="1" page="1" pageScale="1" pageWidth="827" pageHeight="1169" math="0" shadow="0">
      <root>
        <mxCell id="0" />
        <mxCell id="1" parent="0" />
        <mxCell id="-2femNKr4ij-wPNgYkvE-2" value="" style="rounded=0;whiteSpace=wrap;html=1;" parent="1" vertex="1">
          <mxGeometry x="70" y="180" width="120" height="320" as="geometry" />
        </mxCell>
        <mxCell id="-2femNKr4ij-wPNgYkvE-4" value="LCD" style="text;html=1;align=center;verticalAlign=middle;whiteSpace=wrap;rounded=0;" parent="1" vertex="1">
          <mxGeometry x="100" y="505" width="60" height="30" as="geometry" />
        </mxCell>
        <mxCell id="-2femNKr4ij-wPNgYkvE-6" value="5V" style="text;html=1;align=center;verticalAlign=middle;whiteSpace=wrap;rounded=0;fillColor=none;fontColor=#ff2e2e;strokeColor=none;" parent="1" vertex="1">
          <mxGeometry x="416" y="50" width="54" height="30" as="geometry" />
        </mxCell>
        <mxCell id="-2femNKr4ij-wPNgYkvE-7" value="" style="endArrow=none;html=1;rounded=0;entryX=0.5;entryY=1;entryDx=0;entryDy=0;fillColor=#e51400;strokeColor=#B20000;" parent="1" source="-2femNKr4ij-wPNgYkvE-92" target="-2femNKr4ij-wPNgYkvE-6" edge="1">
          <mxGeometry width="50" height="50" relative="1" as="geometry">
            <mxPoint x="450" y="880" as="sourcePoint" />
            <mxPoint x="484" y="220" as="targetPoint" />
          </mxGeometry>
        </mxCell>
        <mxCell id="-2femNKr4ij-wPNgYkvE-9" value="GND" style="text;html=1;align=center;verticalAlign=middle;whiteSpace=wrap;rounded=0;" parent="1" vertex="1">
          <mxGeometry x="361" y="70" width="66" height="30" as="geometry" />
        </mxCell>
        <mxCell id="-2femNKr4ij-wPNgYkvE-11" value="" style="endArrow=none;html=1;rounded=0;entryX=0.5;entryY=1;entryDx=0;entryDy=0;" parent="1" source="-2femNKr4ij-wPNgYkvE-87" target="-2femNKr4ij-wPNgYkvE-9" edge="1">
          <mxGeometry width="50" height="50" relative="1" as="geometry">
            <mxPoint x="400" y="880" as="sourcePoint" />
            <mxPoint x="364" y="400" as="targetPoint" />
          </mxGeometry>
        </mxCell>
        <mxCell id="-2femNKr4ij-wPNgYkvE-13" value="" style="rounded=0;whiteSpace=wrap;html=1;" parent="1" vertex="1">
          <mxGeometry x="554" y="230" width="200" height="370" as="geometry" />
        </mxCell>
        <mxCell id="-2femNKr4ij-wPNgYkvE-15" value="Arduino Uno Rev 3" style="text;html=1;align=center;verticalAlign=middle;whiteSpace=wrap;rounded=0;" parent="1" vertex="1">
          <mxGeometry x="594" y="600" width="120" height="30" as="geometry" />
        </mxCell>
        <mxCell id="-2femNKr4ij-wPNgYkvE-18" value="" style="rounded=0;whiteSpace=wrap;html=1;" parent="1" vertex="1">
          <mxGeometry x="230" y="750" width="40" height="40" as="geometry" />
        </mxCell>
        <mxCell id="-2femNKr4ij-wPNgYkvE-19" value="" style="rounded=0;whiteSpace=wrap;html=1;" parent="1" vertex="1">
          <mxGeometry x="75" y="990" width="70" height="80" as="geometry" />
        </mxCell>
        <mxCell id="-2femNKr4ij-wPNgYkvE-20" value="" style="rounded=0;whiteSpace=wrap;html=1;" parent="1" vertex="1">
          <mxGeometry x="311" y="602.5" width="30" height="25" as="geometry" />
        </mxCell>
        <mxCell id="-2femNKr4ij-wPNgYkvE-21" value="" style="rounded=0;whiteSpace=wrap;html=1;" parent="1" vertex="1">
          <mxGeometry x="570" y="945" width="280" height="120" as="geometry" />
        </mxCell>
        <mxCell id="-2femNKr4ij-wPNgYkvE-22" value="DHT11" style="text;html=1;align=center;verticalAlign=middle;whiteSpace=wrap;rounded=0;" parent="1" vertex="1">
          <mxGeometry x="67" y="1070" width="86" height="30" as="geometry" />
        </mxCell>
        <mxCell id="-2femNKr4ij-wPNgYkvE-23" value="Button" style="text;html=1;align=center;verticalAlign=middle;whiteSpace=wrap;rounded=0;" parent="1" vertex="1">
          <mxGeometry x="220" y="800" width="60" height="30" as="geometry" />
        </mxCell>
        <mxCell id="-2femNKr4ij-wPNgYkvE-24" value="Buzzer" style="text;html=1;align=center;verticalAlign=middle;whiteSpace=wrap;rounded=0;" parent="1" vertex="1">
          <mxGeometry x="296" y="630" width="60" height="30" as="geometry" />
        </mxCell>
        <mxCell id="-2femNKr4ij-wPNgYkvE-25" value="PMS5300" style="text;html=1;align=center;verticalAlign=middle;whiteSpace=wrap;rounded=0;" parent="1" vertex="1">
          <mxGeometry x="654" y="1085" width="100" height="30" as="geometry" />
        </mxCell>
        <mxCell id="-2femNKr4ij-wPNgYkvE-26" value="" style="endArrow=none;html=1;rounded=0;" parent="1" edge="1">
          <mxGeometry width="50" height="50" relative="1" as="geometry">
            <mxPoint x="270" y="750" as="sourcePoint" />
            <mxPoint x="300" y="720" as="targetPoint" />
          </mxGeometry>
        </mxCell>
        <mxCell id="-2femNKr4ij-wPNgYkvE-28" value="" style="endArrow=none;html=1;rounded=0;" parent="1" edge="1">
          <mxGeometry width="50" height="50" relative="1" as="geometry">
            <mxPoint x="200" y="820" as="sourcePoint" />
            <mxPoint x="230" y="790" as="targetPoint" />
          </mxGeometry>
        </mxCell>
        <mxCell id="-2femNKr4ij-wPNgYkvE-29" value="" style="endArrow=none;html=1;rounded=0;" parent="1" edge="1">
          <mxGeometry width="50" height="50" relative="1" as="geometry">
            <mxPoint x="270" y="790" as="sourcePoint" />
            <mxPoint x="300" y="820" as="targetPoint" />
          </mxGeometry>
        </mxCell>
        <mxCell id="-2femNKr4ij-wPNgYkvE-31" value="" style="endArrow=none;html=1;rounded=0;" parent="1" edge="1">
          <mxGeometry width="50" height="50" relative="1" as="geometry">
            <mxPoint x="200" y="720" as="sourcePoint" />
            <mxPoint x="230" y="750" as="targetPoint" />
          </mxGeometry>
        </mxCell>
        <mxCell id="-2femNKr4ij-wPNgYkvE-32" value="" style="endArrow=none;html=1;rounded=0;fillColor=#a20025;strokeColor=#6F0000;" parent="1" source="-2femNKr4ij-wPNgYkvE-33" edge="1">
          <mxGeometry width="50" height="50" relative="1" as="geometry">
            <mxPoint x="300" y="820" as="sourcePoint" />
            <mxPoint x="450" y="820" as="targetPoint" />
          </mxGeometry>
        </mxCell>
        <mxCell id="-2femNKr4ij-wPNgYkvE-36" value="" style="endArrow=none;html=1;rounded=0;entryX=0.5;entryY=1;entryDx=0;entryDy=0;fillColor=#e51400;strokeColor=#B20000;" parent="1" source="kfQRFYKegN1roRXJEqxX-8" target="-2femNKr4ij-wPNgYkvE-33" edge="1">
          <mxGeometry width="50" height="50" relative="1" as="geometry">
            <mxPoint x="444" y="1100" as="sourcePoint" />
            <mxPoint x="444" y="200" as="targetPoint" />
          </mxGeometry>
        </mxCell>
        <mxCell id="-2femNKr4ij-wPNgYkvE-37" value="" style="endArrow=none;html=1;rounded=0;" parent="1" source="-2femNKr4ij-wPNgYkvE-38" edge="1">
          <mxGeometry width="50" height="50" relative="1" as="geometry">
            <mxPoint x="300" y="720" as="sourcePoint" />
            <mxPoint x="330" y="720" as="targetPoint" />
          </mxGeometry>
        </mxCell>
        <mxCell id="-2femNKr4ij-wPNgYkvE-39" value="" style="endArrow=none;html=1;rounded=0;" parent="1" target="-2femNKr4ij-wPNgYkvE-38" edge="1">
          <mxGeometry width="50" height="50" relative="1" as="geometry">
            <mxPoint x="300" y="720" as="sourcePoint" />
            <mxPoint x="330" y="720" as="targetPoint" />
          </mxGeometry>
        </mxCell>
        <mxCell id="-2femNKr4ij-wPNgYkvE-38" value="10k&lt;b style=&quot;color: rgb(190, 187, 183); font-family: sans-serif; text-align: start; background-color: rgb(50, 51, 52);&quot;&gt;&lt;font style=&quot;font-size: 13px;&quot;&gt;Î©&lt;/font&gt;&lt;/b&gt;" style="rounded=0;whiteSpace=wrap;html=1;" parent="1" vertex="1">
          <mxGeometry x="320" y="710" width="50" height="20" as="geometry" />
        </mxCell>
        <mxCell id="-2femNKr4ij-wPNgYkvE-40" value="" style="endArrow=none;html=1;rounded=0;" parent="1" edge="1">
          <mxGeometry width="50" height="50" relative="1" as="geometry">
            <mxPoint x="390" y="720" as="sourcePoint" />
            <mxPoint x="370" y="720" as="targetPoint" />
          </mxGeometry>
        </mxCell>
        <mxCell id="-2femNKr4ij-wPNgYkvE-42" value="" style="endArrow=none;html=1;rounded=0;entryX=0.5;entryY=1;entryDx=0;entryDy=0;" parent="1" source="kfQRFYKegN1roRXJEqxX-11" target="-2femNKr4ij-wPNgYkvE-41" edge="1">
          <mxGeometry width="50" height="50" relative="1" as="geometry">
            <mxPoint x="394" y="1100" as="sourcePoint" />
            <mxPoint x="394" y="200" as="targetPoint" />
          </mxGeometry>
        </mxCell>
        <mxCell id="-2femNKr4ij-wPNgYkvE-41" value="" style="ellipse;whiteSpace=wrap;html=1;aspect=fixed;" parent="1" vertex="1">
          <mxGeometry x="384" y="710" width="20" height="20" as="geometry" />
        </mxCell>
        <mxCell id="-2femNKr4ij-wPNgYkvE-43" value="" style="endArrow=none;html=1;rounded=0;fillColor=#a20025;strokeColor=#6F0000;" parent="1" target="-2femNKr4ij-wPNgYkvE-33" edge="1">
          <mxGeometry width="50" height="50" relative="1" as="geometry">
            <mxPoint x="300" y="820" as="sourcePoint" />
            <mxPoint x="450" y="820" as="targetPoint" />
          </mxGeometry>
        </mxCell>
        <mxCell id="-2femNKr4ij-wPNgYkvE-33" value="" style="ellipse;whiteSpace=wrap;html=1;fillColor=#a20025;fontColor=#ffffff;strokeColor=#6F0000;" parent="1" vertex="1">
          <mxGeometry x="433.5" y="810" width="21" height="20" as="geometry" />
        </mxCell>
        <mxCell id="-2femNKr4ij-wPNgYkvE-45" value="" style="endArrow=none;html=1;rounded=0;fillColor=#a0522d;strokeColor=#6D1F00;" parent="1" edge="1">
          <mxGeometry width="50" height="50" relative="1" as="geometry">
            <mxPoint x="200" y="720" as="sourcePoint" />
            <mxPoint x="200" y="680" as="targetPoint" />
          </mxGeometry>
        </mxCell>
        <mxCell id="-2femNKr4ij-wPNgYkvE-46" value="" style="endArrow=none;html=1;rounded=0;fillColor=#a0522d;strokeColor=#6D1F00;" parent="1" edge="1">
          <mxGeometry width="50" height="50" relative="1" as="geometry">
            <mxPoint x="480" y="680" as="sourcePoint" />
            <mxPoint x="200" y="680" as="targetPoint" />
          </mxGeometry>
        </mxCell>
        <mxCell id="-2femNKr4ij-wPNgYkvE-47" value="" style="endArrow=none;html=1;rounded=0;fillColor=#a0522d;strokeColor=#6D1F00;" parent="1" edge="1">
          <mxGeometry width="50" height="50" relative="1" as="geometry">
            <mxPoint x="480" y="380" as="sourcePoint" />
            <mxPoint x="480" y="680" as="targetPoint" />
          </mxGeometry>
        </mxCell>
        <mxCell id="-2femNKr4ij-wPNgYkvE-48" value="0" style="text;html=1;align=center;verticalAlign=middle;whiteSpace=wrap;rounded=0;" parent="1" vertex="1">
          <mxGeometry x="554" y="230" width="26" height="20" as="geometry" />
        </mxCell>
        <mxCell id="-2femNKr4ij-wPNgYkvE-49" value="1" style="text;html=1;align=center;verticalAlign=middle;whiteSpace=wrap;rounded=0;" parent="1" vertex="1">
          <mxGeometry x="554" y="250" width="26" height="20" as="geometry" />
        </mxCell>
        <mxCell id="-2femNKr4ij-wPNgYkvE-50" value="2" style="text;html=1;align=center;verticalAlign=middle;whiteSpace=wrap;rounded=0;" parent="1" vertex="1">
          <mxGeometry x="554" y="270" width="26" height="20" as="geometry" />
        </mxCell>
        <mxCell id="-2femNKr4ij-wPNgYkvE-51" value="3" style="text;html=1;align=center;verticalAlign=middle;whiteSpace=wrap;rounded=0;" parent="1" vertex="1">
          <mxGeometry x="554" y="290" width="26" height="20" as="geometry" />
        </mxCell>
        <mxCell id="-2femNKr4ij-wPNgYkvE-52" value="4" style="text;html=1;align=center;verticalAlign=middle;whiteSpace=wrap;rounded=0;" parent="1" vertex="1">
          <mxGeometry x="554" y="310" width="26" height="20" as="geometry" />
        </mxCell>
        <mxCell id="-2femNKr4ij-wPNgYkvE-53" value="5" style="text;html=1;align=center;verticalAlign=middle;whiteSpace=wrap;rounded=0;" parent="1" vertex="1">
          <mxGeometry x="554" y="330" width="26" height="20" as="geometry" />
        </mxCell>
        <mxCell id="-2femNKr4ij-wPNgYkvE-54" value="6" style="text;html=1;align=center;verticalAlign=middle;whiteSpace=wrap;rounded=0;" parent="1" vertex="1">
          <mxGeometry x="554" y="350" width="26" height="20" as="geometry" />
        </mxCell>
        <mxCell id="-2femNKr4ij-wPNgYkvE-55" value="7" style="text;html=1;align=center;verticalAlign=middle;whiteSpace=wrap;rounded=0;" parent="1" vertex="1">
          <mxGeometry x="554" y="370" width="26" height="20" as="geometry" />
        </mxCell>
        <mxCell id="-2femNKr4ij-wPNgYkvE-56" value="8" style="text;html=1;align=center;verticalAlign=middle;whiteSpace=wrap;rounded=0;" parent="1" vertex="1">
          <mxGeometry x="554" y="390" width="26" height="20" as="geometry" />
        </mxCell>
        <mxCell id="-2femNKr4ij-wPNgYkvE-57" value="9" style="text;html=1;align=center;verticalAlign=middle;whiteSpace=wrap;rounded=0;" parent="1" vertex="1">
          <mxGeometry x="554" y="410" width="26" height="20" as="geometry" />
        </mxCell>
        <mxCell id="-2femNKr4ij-wPNgYkvE-58" value="10" style="text;html=1;align=center;verticalAlign=middle;whiteSpace=wrap;rounded=0;" parent="1" vertex="1">
          <mxGeometry x="554" y="430" width="26" height="20" as="geometry" />
        </mxCell>
        <mxCell id="-2femNKr4ij-wPNgYkvE-59" value="11" style="text;html=1;align=center;verticalAlign=middle;whiteSpace=wrap;rounded=0;" parent="1" vertex="1">
          <mxGeometry x="554" y="450" width="26" height="20" as="geometry" />
        </mxCell>
        <mxCell id="-2femNKr4ij-wPNgYkvE-60" value="12" style="text;html=1;align=center;verticalAlign=middle;whiteSpace=wrap;rounded=0;" parent="1" vertex="1">
          <mxGeometry x="554" y="470" width="26" height="20" as="geometry" />
        </mxCell>
        <mxCell id="-2femNKr4ij-wPNgYkvE-61" value="13" style="text;html=1;align=center;verticalAlign=middle;whiteSpace=wrap;rounded=0;" parent="1" vertex="1">
          <mxGeometry x="554" y="490" width="26" height="20" as="geometry" />
        </mxCell>
        <mxCell id="-2femNKr4ij-wPNgYkvE-62" value="GND" style="text;html=1;align=center;verticalAlign=middle;whiteSpace=wrap;rounded=0;" parent="1" vertex="1">
          <mxGeometry x="554" y="510" width="36" height="20" as="geometry" />
        </mxCell>
        <mxCell id="-2femNKr4ij-wPNgYkvE-63" value="AREF" style="text;html=1;align=center;verticalAlign=middle;whiteSpace=wrap;rounded=0;" parent="1" vertex="1">
          <mxGeometry x="554" y="530" width="36" height="20" as="geometry" />
        </mxCell>
        <mxCell id="-2femNKr4ij-wPNgYkvE-66" style="edgeStyle=orthogonalEdgeStyle;rounded=0;orthogonalLoop=1;jettySize=auto;html=1;exitX=0.5;exitY=1;exitDx=0;exitDy=0;" parent="1" source="-2femNKr4ij-wPNgYkvE-13" target="-2femNKr4ij-wPNgYkvE-13" edge="1">
          <mxGeometry relative="1" as="geometry" />
        </mxCell>
        <mxCell id="-2femNKr4ij-wPNgYkvE-67" value="" style="endArrow=none;html=1;rounded=0;fillColor=#a0522d;strokeColor=#6D1F00;entryX=0;entryY=0.5;entryDx=0;entryDy=0;" parent="1" target="-2femNKr4ij-wPNgYkvE-55" edge="1">
          <mxGeometry width="50" height="50" relative="1" as="geometry">
            <mxPoint x="480" y="380" as="sourcePoint" />
            <mxPoint x="520" y="480" as="targetPoint" />
          </mxGeometry>
        </mxCell>
        <mxCell id="-2femNKr4ij-wPNgYkvE-69" value="VSS" style="text;html=1;align=center;verticalAlign=middle;whiteSpace=wrap;rounded=0;" parent="1" vertex="1">
          <mxGeometry x="156" y="180" width="34" height="20" as="geometry" />
        </mxCell>
        <mxCell id="-2femNKr4ij-wPNgYkvE-70" value="VDD" style="text;html=1;align=center;verticalAlign=middle;whiteSpace=wrap;rounded=0;" parent="1" vertex="1">
          <mxGeometry x="156" y="200" width="34" height="20" as="geometry" />
        </mxCell>
        <mxCell id="-2femNKr4ij-wPNgYkvE-71" value="V0" style="text;html=1;align=center;verticalAlign=middle;whiteSpace=wrap;rounded=0;" parent="1" vertex="1">
          <mxGeometry x="156" y="220" width="34" height="20" as="geometry" />
        </mxCell>
        <mxCell id="-2femNKr4ij-wPNgYkvE-72" value="RS" style="text;html=1;align=center;verticalAlign=middle;whiteSpace=wrap;rounded=0;" parent="1" vertex="1">
          <mxGeometry x="156" y="240" width="34" height="20" as="geometry" />
        </mxCell>
        <mxCell id="-2femNKr4ij-wPNgYkvE-73" value="RW" style="text;html=1;align=center;verticalAlign=middle;whiteSpace=wrap;rounded=0;" parent="1" vertex="1">
          <mxGeometry x="156" y="260" width="34" height="20" as="geometry" />
        </mxCell>
        <mxCell id="-2femNKr4ij-wPNgYkvE-74" value="E" style="text;html=1;align=center;verticalAlign=middle;whiteSpace=wrap;rounded=0;" parent="1" vertex="1">
          <mxGeometry x="156" y="280" width="34" height="20" as="geometry" />
        </mxCell>
        <mxCell id="-2femNKr4ij-wPNgYkvE-75" value="D0" style="text;html=1;align=center;verticalAlign=middle;whiteSpace=wrap;rounded=0;" parent="1" vertex="1">
          <mxGeometry x="156" y="300" width="34" height="20" as="geometry" />
        </mxCell>
        <mxCell id="-2femNKr4ij-wPNgYkvE-76" value="D1" style="text;html=1;align=center;verticalAlign=middle;whiteSpace=wrap;rounded=0;" parent="1" vertex="1">
          <mxGeometry x="156" y="320" width="34" height="20" as="geometry" />
        </mxCell>
        <mxCell id="-2femNKr4ij-wPNgYkvE-77" value="D2" style="text;html=1;align=center;verticalAlign=middle;whiteSpace=wrap;rounded=0;" parent="1" vertex="1">
          <mxGeometry x="156" y="340" width="34" height="20" as="geometry" />
        </mxCell>
        <mxCell id="-2femNKr4ij-wPNgYkvE-78" value="D3" style="text;html=1;align=center;verticalAlign=middle;whiteSpace=wrap;rounded=0;" parent="1" vertex="1">
          <mxGeometry x="156" y="360" width="34" height="20" as="geometry" />
        </mxCell>
        <mxCell id="-2femNKr4ij-wPNgYkvE-79" value="D4" style="text;html=1;align=center;verticalAlign=middle;whiteSpace=wrap;rounded=0;" parent="1" vertex="1">
          <mxGeometry x="156" y="380" width="34" height="20" as="geometry" />
        </mxCell>
        <mxCell id="-2femNKr4ij-wPNgYkvE-80" value="D5" style="text;html=1;align=center;verticalAlign=middle;whiteSpace=wrap;rounded=0;" parent="1" vertex="1">
          <mxGeometry x="156" y="400" width="34" height="20" as="geometry" />
        </mxCell>
        <mxCell id="-2femNKr4ij-wPNgYkvE-81" value="D6" style="text;html=1;align=center;verticalAlign=middle;whiteSpace=wrap;rounded=0;" parent="1" vertex="1">
          <mxGeometry x="156" y="420" width="34" height="20" as="geometry" />
        </mxCell>
        <mxCell id="-2femNKr4ij-wPNgYkvE-82" value="D7" style="text;html=1;align=center;verticalAlign=middle;whiteSpace=wrap;rounded=0;" parent="1" vertex="1">
          <mxGeometry x="156" y="440" width="34" height="20" as="geometry" />
        </mxCell>
        <mxCell id="-2femNKr4ij-wPNgYkvE-83" value="A" style="text;html=1;align=center;verticalAlign=middle;whiteSpace=wrap;rounded=0;" parent="1" vertex="1">
          <mxGeometry x="156" y="460" width="34" height="20" as="geometry" />
        </mxCell>
        <mxCell id="-2femNKr4ij-wPNgYkvE-85" value="K" style="text;html=1;align=center;verticalAlign=middle;whiteSpace=wrap;rounded=0;" parent="1" vertex="1">
          <mxGeometry x="156" y="480" width="34" height="20" as="geometry" />
        </mxCell>
        <mxCell id="-2femNKr4ij-wPNgYkvE-86" value="" style="endArrow=none;html=1;rounded=0;exitX=1;exitY=0.5;exitDx=0;exitDy=0;" parent="1" source="-2femNKr4ij-wPNgYkvE-69" edge="1">
          <mxGeometry width="50" height="50" relative="1" as="geometry">
            <mxPoint x="280" y="290" as="sourcePoint" />
            <mxPoint x="390" y="220" as="targetPoint" />
          </mxGeometry>
        </mxCell>
        <mxCell id="-2femNKr4ij-wPNgYkvE-90" value="" style="endArrow=none;html=1;rounded=0;entryX=0.5;entryY=1;entryDx=0;entryDy=0;" parent="1" source="-2femNKr4ij-wPNgYkvE-127" target="-2femNKr4ij-wPNgYkvE-87" edge="1">
          <mxGeometry width="50" height="50" relative="1" as="geometry">
            <mxPoint x="394" y="710" as="sourcePoint" />
            <mxPoint x="394" y="200" as="targetPoint" />
          </mxGeometry>
        </mxCell>
        <mxCell id="-2femNKr4ij-wPNgYkvE-87" value="" style="ellipse;whiteSpace=wrap;html=1;aspect=fixed;" parent="1" vertex="1">
          <mxGeometry x="384" y="210" width="20" height="20" as="geometry" />
        </mxCell>
        <mxCell id="-2femNKr4ij-wPNgYkvE-91" value="" style="endArrow=none;html=1;rounded=0;fillColor=#e51400;strokeColor=#B20000;exitX=1;exitY=0.5;exitDx=0;exitDy=0;" parent="1" source="-2femNKr4ij-wPNgYkvE-70" edge="1">
          <mxGeometry width="50" height="50" relative="1" as="geometry">
            <mxPoint x="190" y="370" as="sourcePoint" />
            <mxPoint x="440" y="250" as="targetPoint" />
          </mxGeometry>
        </mxCell>
        <mxCell id="-2femNKr4ij-wPNgYkvE-93" value="" style="endArrow=none;html=1;rounded=0;entryX=0.5;entryY=1;entryDx=0;entryDy=0;fillColor=#e51400;strokeColor=#B20000;" parent="1" source="-2femNKr4ij-wPNgYkvE-141" target="-2femNKr4ij-wPNgYkvE-92" edge="1">
          <mxGeometry width="50" height="50" relative="1" as="geometry">
            <mxPoint x="444" y="810" as="sourcePoint" />
            <mxPoint x="444" y="200" as="targetPoint" />
          </mxGeometry>
        </mxCell>
        <mxCell id="-2femNKr4ij-wPNgYkvE-92" value="" style="ellipse;whiteSpace=wrap;html=1;fillColor=#a20025;fontColor=#ffffff;strokeColor=#6F0000;" parent="1" vertex="1">
          <mxGeometry x="433.5" y="240" width="21" height="20" as="geometry" />
        </mxCell>
        <mxCell id="-2femNKr4ij-wPNgYkvE-94" value="" style="endArrow=none;html=1;rounded=0;fillColor=#6d8764;strokeColor=#3A5431;exitX=1;exitY=0.5;exitDx=0;exitDy=0;" parent="1" source="-2femNKr4ij-wPNgYkvE-72" edge="1">
          <mxGeometry width="50" height="50" relative="1" as="geometry">
            <mxPoint x="225" y="295" as="sourcePoint" />
            <mxPoint x="260" y="250" as="targetPoint" />
          </mxGeometry>
        </mxCell>
        <mxCell id="-2femNKr4ij-wPNgYkvE-96" value="" style="endArrow=none;html=1;rounded=0;fillColor=#6d8764;strokeColor=#3A5431;exitX=1;exitY=0.5;exitDx=0;exitDy=0;" parent="1" edge="1">
          <mxGeometry width="50" height="50" relative="1" as="geometry">
            <mxPoint x="190" y="289.77" as="sourcePoint" />
            <mxPoint x="300" y="290" as="targetPoint" />
          </mxGeometry>
        </mxCell>
        <mxCell id="-2femNKr4ij-wPNgYkvE-97" value="" style="endArrow=none;html=1;rounded=0;" parent="1" edge="1">
          <mxGeometry width="50" height="50" relative="1" as="geometry">
            <mxPoint x="190" y="490" as="sourcePoint" />
            <mxPoint x="390" y="490" as="targetPoint" />
          </mxGeometry>
        </mxCell>
        <mxCell id="-2femNKr4ij-wPNgYkvE-102" value="" style="endArrow=none;html=1;rounded=0;fillColor=#e51400;strokeColor=#B20000;exitX=1;exitY=0.5;exitDx=0;exitDy=0;entryX=0;entryY=0.5;entryDx=0;entryDy=0;" parent="1" edge="1" target="-2femNKr4ij-wPNgYkvE-54">
          <mxGeometry width="50" height="50" relative="1" as="geometry">
            <mxPoint x="190" y="470" as="sourcePoint" />
            <mxPoint x="460" y="360" as="targetPoint" />
            <Array as="points">
              <mxPoint x="420" y="470" />
              <mxPoint x="420" y="360" />
            </Array>
          </mxGeometry>
        </mxCell>
        <mxCell id="-2femNKr4ij-wPNgYkvE-104" value="" style="endArrow=none;html=1;rounded=0;fillColor=#6d8764;strokeColor=#3A5431;exitX=1;exitY=0.5;exitDx=0;exitDy=0;" parent="1" edge="1">
          <mxGeometry width="50" height="50" relative="1" as="geometry">
            <mxPoint x="190" y="390" as="sourcePoint" />
            <mxPoint x="300" y="390.23" as="targetPoint" />
          </mxGeometry>
        </mxCell>
        <mxCell id="-2femNKr4ij-wPNgYkvE-105" value="" style="endArrow=none;html=1;rounded=0;fillColor=#6d8764;strokeColor=#3A5431;exitX=1;exitY=0.5;exitDx=0;exitDy=0;" parent="1" edge="1">
          <mxGeometry width="50" height="50" relative="1" as="geometry">
            <mxPoint x="190" y="409.84" as="sourcePoint" />
            <mxPoint x="320" y="410" as="targetPoint" />
          </mxGeometry>
        </mxCell>
        <mxCell id="-2femNKr4ij-wPNgYkvE-106" value="" style="endArrow=none;html=1;rounded=0;fillColor=#6d8764;strokeColor=#3A5431;exitX=1;exitY=0.5;exitDx=0;exitDy=0;" parent="1" edge="1">
          <mxGeometry width="50" height="50" relative="1" as="geometry">
            <mxPoint x="190" y="430" as="sourcePoint" />
            <mxPoint x="340" y="430" as="targetPoint" />
          </mxGeometry>
        </mxCell>
        <mxCell id="-2femNKr4ij-wPNgYkvE-107" value="" style="endArrow=none;html=1;rounded=0;fillColor=#6d8764;strokeColor=#3A5431;exitX=1;exitY=0.5;exitDx=0;exitDy=0;" parent="1" edge="1">
          <mxGeometry width="50" height="50" relative="1" as="geometry">
            <mxPoint x="190" y="450" as="sourcePoint" />
            <mxPoint x="360" y="450" as="targetPoint" />
          </mxGeometry>
        </mxCell>
        <mxCell id="-2femNKr4ij-wPNgYkvE-108" value="" style="endArrow=none;html=1;rounded=0;fillColor=#6d8764;strokeColor=#3A5431;" parent="1" edge="1">
          <mxGeometry width="50" height="50" relative="1" as="geometry">
            <mxPoint x="300" y="390" as="sourcePoint" />
            <mxPoint x="300" y="340" as="targetPoint" />
          </mxGeometry>
        </mxCell>
        <mxCell id="-2femNKr4ij-wPNgYkvE-109" value="" style="endArrow=none;html=1;rounded=0;fillColor=#6d8764;strokeColor=#3A5431;exitX=0;exitY=0.5;exitDx=0;exitDy=0;" parent="1" source="-2femNKr4ij-wPNgYkvE-53" edge="1">
          <mxGeometry width="50" height="50" relative="1" as="geometry">
            <mxPoint x="310" y="400" as="sourcePoint" />
            <mxPoint x="300" y="340" as="targetPoint" />
          </mxGeometry>
        </mxCell>
        <mxCell id="-2femNKr4ij-wPNgYkvE-110" value="" style="endArrow=none;html=1;rounded=0;fillColor=#6d8764;strokeColor=#3A5431;" parent="1" edge="1">
          <mxGeometry width="50" height="50" relative="1" as="geometry">
            <mxPoint x="320" y="410" as="sourcePoint" />
            <mxPoint x="320" y="320" as="targetPoint" />
          </mxGeometry>
        </mxCell>
        <mxCell id="-2femNKr4ij-wPNgYkvE-111" value="" style="endArrow=none;html=1;rounded=0;fillColor=#6d8764;strokeColor=#3A5431;exitX=0;exitY=0.5;exitDx=0;exitDy=0;" parent="1" source="-2femNKr4ij-wPNgYkvE-52" edge="1">
          <mxGeometry width="50" height="50" relative="1" as="geometry">
            <mxPoint x="564" y="350" as="sourcePoint" />
            <mxPoint x="320" y="320" as="targetPoint" />
          </mxGeometry>
        </mxCell>
        <mxCell id="-2femNKr4ij-wPNgYkvE-112" value="" style="endArrow=none;html=1;rounded=0;fillColor=#6d8764;strokeColor=#3A5431;" parent="1" edge="1">
          <mxGeometry width="50" height="50" relative="1" as="geometry">
            <mxPoint x="340" y="430" as="sourcePoint" />
            <mxPoint x="340" y="300" as="targetPoint" />
          </mxGeometry>
        </mxCell>
        <mxCell id="-2femNKr4ij-wPNgYkvE-113" value="" style="endArrow=none;html=1;rounded=0;fillColor=#6d8764;strokeColor=#3A5431;exitX=0;exitY=0.5;exitDx=0;exitDy=0;" parent="1" source="-2femNKr4ij-wPNgYkvE-51" edge="1">
          <mxGeometry width="50" height="50" relative="1" as="geometry">
            <mxPoint x="550" y="300" as="sourcePoint" />
            <mxPoint x="340" y="299.67" as="targetPoint" />
          </mxGeometry>
        </mxCell>
        <mxCell id="-2femNKr4ij-wPNgYkvE-114" value="" style="endArrow=none;html=1;rounded=0;fillColor=#6d8764;strokeColor=#3A5431;" parent="1" edge="1">
          <mxGeometry width="50" height="50" relative="1" as="geometry">
            <mxPoint x="360.33" y="450" as="sourcePoint" />
            <mxPoint x="360" y="280" as="targetPoint" />
          </mxGeometry>
        </mxCell>
        <mxCell id="-2femNKr4ij-wPNgYkvE-115" value="" style="endArrow=none;html=1;rounded=0;fillColor=#6d8764;strokeColor=#3A5431;exitX=0;exitY=0.5;exitDx=0;exitDy=0;" parent="1" source="-2femNKr4ij-wPNgYkvE-50" edge="1">
          <mxGeometry width="50" height="50" relative="1" as="geometry">
            <mxPoint x="564" y="310" as="sourcePoint" />
            <mxPoint x="360" y="280" as="targetPoint" />
          </mxGeometry>
        </mxCell>
        <mxCell id="-2femNKr4ij-wPNgYkvE-116" value="" style="endArrow=none;html=1;rounded=0;fillColor=#6d8764;strokeColor=#3A5431;" parent="1" edge="1">
          <mxGeometry width="50" height="50" relative="1" as="geometry">
            <mxPoint x="300" y="290" as="sourcePoint" />
            <mxPoint x="300" y="170" as="targetPoint" />
          </mxGeometry>
        </mxCell>
        <mxCell id="-2femNKr4ij-wPNgYkvE-118" value="" style="endArrow=none;html=1;rounded=0;fillColor=#6d8764;strokeColor=#3A5431;" parent="1" edge="1">
          <mxGeometry width="50" height="50" relative="1" as="geometry">
            <mxPoint x="260" y="250" as="sourcePoint" />
            <mxPoint x="260" y="130" as="targetPoint" />
          </mxGeometry>
        </mxCell>
        <mxCell id="-2femNKr4ij-wPNgYkvE-119" value="" style="endArrow=none;html=1;rounded=0;fillColor=#6d8764;strokeColor=#3A5431;" parent="1" edge="1">
          <mxGeometry width="50" height="50" relative="1" as="geometry">
            <mxPoint x="530" y="130" as="sourcePoint" />
            <mxPoint x="260" y="130" as="targetPoint" />
          </mxGeometry>
        </mxCell>
        <mxCell id="-2femNKr4ij-wPNgYkvE-121" value="" style="endArrow=none;html=1;rounded=0;fillColor=#6d8764;strokeColor=#3A5431;" parent="1" edge="1">
          <mxGeometry width="50" height="50" relative="1" as="geometry">
            <mxPoint x="510" y="170" as="sourcePoint" />
            <mxPoint x="299" y="169.68" as="targetPoint" />
          </mxGeometry>
        </mxCell>
        <mxCell id="-2femNKr4ij-wPNgYkvE-122" value="" style="endArrow=none;html=1;rounded=0;fillColor=#6d8764;strokeColor=#3A5431;" parent="1" edge="1">
          <mxGeometry width="50" height="50" relative="1" as="geometry">
            <mxPoint x="530" y="480" as="sourcePoint" />
            <mxPoint x="530" y="130" as="targetPoint" />
          </mxGeometry>
        </mxCell>
        <mxCell id="-2femNKr4ij-wPNgYkvE-123" value="" style="endArrow=none;html=1;rounded=0;fillColor=#6d8764;strokeColor=#3A5431;exitX=0;exitY=0.5;exitDx=0;exitDy=0;" parent="1" source="-2femNKr4ij-wPNgYkvE-60" edge="1">
          <mxGeometry width="50" height="50" relative="1" as="geometry">
            <mxPoint x="530" y="690" as="sourcePoint" />
            <mxPoint x="530" y="480" as="targetPoint" />
          </mxGeometry>
        </mxCell>
        <mxCell id="-2femNKr4ij-wPNgYkvE-125" value="" style="endArrow=none;html=1;rounded=0;exitX=1;exitY=0.5;exitDx=0;exitDy=0;entryX=0.016;entryY=0.596;entryDx=0;entryDy=0;entryPerimeter=0;" parent="1" source="-2femNKr4ij-wPNgYkvE-73" target="-2femNKr4ij-wPNgYkvE-127" edge="1">
          <mxGeometry width="50" height="50" relative="1" as="geometry">
            <mxPoint x="490" y="320" as="sourcePoint" />
            <mxPoint x="390" y="270" as="targetPoint" />
          </mxGeometry>
        </mxCell>
        <mxCell id="-2femNKr4ij-wPNgYkvE-128" value="" style="endArrow=none;html=1;rounded=0;entryX=0.5;entryY=1;entryDx=0;entryDy=0;" parent="1" source="-2femNKr4ij-wPNgYkvE-101" target="-2femNKr4ij-wPNgYkvE-127" edge="1">
          <mxGeometry width="50" height="50" relative="1" as="geometry">
            <mxPoint x="394" y="710" as="sourcePoint" />
            <mxPoint x="394" y="230" as="targetPoint" />
          </mxGeometry>
        </mxCell>
        <mxCell id="-2femNKr4ij-wPNgYkvE-127" value="" style="ellipse;whiteSpace=wrap;html=1;aspect=fixed;" parent="1" vertex="1">
          <mxGeometry x="384" y="250" width="20" height="20" as="geometry" />
        </mxCell>
        <mxCell id="-2femNKr4ij-wPNgYkvE-129" value="" style="endArrow=none;html=1;rounded=0;entryX=0.5;entryY=1;entryDx=0;entryDy=0;" parent="1" source="-2femNKr4ij-wPNgYkvE-139" target="-2femNKr4ij-wPNgYkvE-101" edge="1">
          <mxGeometry width="50" height="50" relative="1" as="geometry">
            <mxPoint x="394" y="710" as="sourcePoint" />
            <mxPoint x="394" y="270" as="targetPoint" />
          </mxGeometry>
        </mxCell>
        <mxCell id="-2femNKr4ij-wPNgYkvE-101" value="" style="ellipse;whiteSpace=wrap;html=1;aspect=fixed;" parent="1" vertex="1">
          <mxGeometry x="384" y="480" width="20" height="20" as="geometry" />
        </mxCell>
        <mxCell id="-2femNKr4ij-wPNgYkvE-130" value="" style="endArrow=none;html=1;rounded=0;fillColor=#6d8764;strokeColor=#3A5431;" parent="1" edge="1">
          <mxGeometry width="50" height="50" relative="1" as="geometry">
            <mxPoint x="510" y="460" as="sourcePoint" />
            <mxPoint x="510" y="170" as="targetPoint" />
          </mxGeometry>
        </mxCell>
        <mxCell id="-2femNKr4ij-wPNgYkvE-131" value="" style="endArrow=none;html=1;rounded=0;fillColor=#6d8764;strokeColor=#3A5431;exitX=0;exitY=0.5;exitDx=0;exitDy=0;" parent="1" source="-2femNKr4ij-wPNgYkvE-59" edge="1">
          <mxGeometry width="50" height="50" relative="1" as="geometry">
            <mxPoint x="533" y="459.57" as="sourcePoint" />
            <mxPoint x="509" y="459.57" as="targetPoint" />
          </mxGeometry>
        </mxCell>
        <mxCell id="-2femNKr4ij-wPNgYkvE-132" value="" style="endArrow=none;html=1;rounded=0;fillColor=#6d8764;strokeColor=#3A5431;exitX=1;exitY=0.5;exitDx=0;exitDy=0;" parent="1" edge="1">
          <mxGeometry width="50" height="50" relative="1" as="geometry">
            <mxPoint x="190" y="230" as="sourcePoint" />
            <mxPoint x="240" y="230" as="targetPoint" />
          </mxGeometry>
        </mxCell>
        <mxCell id="-2femNKr4ij-wPNgYkvE-133" value="" style="endArrow=none;html=1;rounded=0;fillColor=#6d8764;strokeColor=#3A5431;" parent="1" edge="1">
          <mxGeometry width="50" height="50" relative="1" as="geometry">
            <mxPoint x="240" y="550" as="sourcePoint" />
            <mxPoint x="240" y="230" as="targetPoint" />
          </mxGeometry>
        </mxCell>
        <mxCell id="-2femNKr4ij-wPNgYkvE-134" value="" style="endArrow=none;html=1;rounded=0;fillColor=#6d8764;strokeColor=#3A5431;" parent="1" source="-2femNKr4ij-wPNgYkvE-146" edge="1">
          <mxGeometry width="50" height="50" relative="1" as="geometry">
            <mxPoint x="240" y="545" as="sourcePoint" />
            <mxPoint x="293" y="545" as="targetPoint" />
          </mxGeometry>
        </mxCell>
        <mxCell id="-2femNKr4ij-wPNgYkvE-135" value="" style="endArrow=none;html=1;rounded=0;fillColor=#e51400;strokeColor=#B20000;" parent="1" edge="1">
          <mxGeometry width="50" height="50" relative="1" as="geometry">
            <mxPoint x="360" y="515" as="sourcePoint" />
            <mxPoint x="440" y="514" as="targetPoint" />
          </mxGeometry>
        </mxCell>
        <mxCell id="-2femNKr4ij-wPNgYkvE-136" value="10k&lt;b style=&quot;color: rgb(190, 187, 183); font-family: sans-serif; text-align: start; background-color: rgb(50, 51, 52);&quot;&gt;&lt;font style=&quot;font-size: 13px;&quot;&gt;Î©&lt;/font&gt;&lt;/b&gt;" style="rounded=0;whiteSpace=wrap;html=1;" parent="1" vertex="1">
          <mxGeometry x="311" y="505" width="50" height="20" as="geometry" />
        </mxCell>
        <mxCell id="-2femNKr4ij-wPNgYkvE-137" value="1.2k&lt;b style=&quot;color: rgb(190, 187, 183); font-family: sans-serif; text-align: start; background-color: rgb(50, 51, 52);&quot;&gt;&lt;font style=&quot;font-size: 13px;&quot;&gt;Î©&lt;/font&gt;&lt;/b&gt;" style="rounded=0;whiteSpace=wrap;html=1;" parent="1" vertex="1">
          <mxGeometry x="311" y="550" width="50" height="20" as="geometry" />
        </mxCell>
        <mxCell id="-2femNKr4ij-wPNgYkvE-138" value="" style="endArrow=none;html=1;rounded=0;" parent="1" edge="1">
          <mxGeometry width="50" height="50" relative="1" as="geometry">
            <mxPoint x="361" y="559.72" as="sourcePoint" />
            <mxPoint x="390" y="560" as="targetPoint" />
          </mxGeometry>
        </mxCell>
        <mxCell id="-2femNKr4ij-wPNgYkvE-140" value="" style="endArrow=none;html=1;rounded=0;entryX=0.5;entryY=1;entryDx=0;entryDy=0;" parent="1" source="1Lw4i4zbZHSfUQySB-gk-2" target="-2femNKr4ij-wPNgYkvE-139" edge="1">
          <mxGeometry width="50" height="50" relative="1" as="geometry">
            <mxPoint x="394" y="710" as="sourcePoint" />
            <mxPoint x="394" y="500" as="targetPoint" />
          </mxGeometry>
        </mxCell>
        <mxCell id="-2femNKr4ij-wPNgYkvE-139" value="" style="ellipse;whiteSpace=wrap;html=1;aspect=fixed;" parent="1" vertex="1">
          <mxGeometry x="384" y="550" width="20" height="20" as="geometry" />
        </mxCell>
        <mxCell id="-2femNKr4ij-wPNgYkvE-142" value="" style="endArrow=none;html=1;rounded=0;entryX=0.5;entryY=1;entryDx=0;entryDy=0;fillColor=#e51400;strokeColor=#B20000;" parent="1" source="-2femNKr4ij-wPNgYkvE-33" target="-2femNKr4ij-wPNgYkvE-141" edge="1">
          <mxGeometry width="50" height="50" relative="1" as="geometry">
            <mxPoint x="444" y="810" as="sourcePoint" />
            <mxPoint x="444" y="260" as="targetPoint" />
          </mxGeometry>
        </mxCell>
        <mxCell id="-2femNKr4ij-wPNgYkvE-141" value="" style="ellipse;whiteSpace=wrap;html=1;fillColor=#a20025;fontColor=#ffffff;strokeColor=#6F0000;" parent="1" vertex="1">
          <mxGeometry x="433.5" y="505" width="21" height="20" as="geometry" />
        </mxCell>
        <mxCell id="-2femNKr4ij-wPNgYkvE-143" value="" style="endArrow=none;html=1;rounded=0;fillColor=#e51400;strokeColor=#B20000;" parent="1" edge="1">
          <mxGeometry width="50" height="50" relative="1" as="geometry">
            <mxPoint x="290" y="545" as="sourcePoint" />
            <mxPoint x="310" y="515" as="targetPoint" />
            <Array as="points">
              <mxPoint x="290" y="515" />
            </Array>
          </mxGeometry>
        </mxCell>
        <mxCell id="-2femNKr4ij-wPNgYkvE-144" value="" style="endArrow=none;html=1;rounded=0;" parent="1" edge="1">
          <mxGeometry width="50" height="50" relative="1" as="geometry">
            <mxPoint x="290" y="545" as="sourcePoint" />
            <mxPoint x="310" y="565" as="targetPoint" />
            <Array as="points">
              <mxPoint x="290" y="565" />
            </Array>
          </mxGeometry>
        </mxCell>
        <mxCell id="-2femNKr4ij-wPNgYkvE-147" value="" style="endArrow=none;html=1;rounded=0;fillColor=#6d8764;strokeColor=#3A5431;" parent="1" target="-2femNKr4ij-wPNgYkvE-146" edge="1">
          <mxGeometry width="50" height="50" relative="1" as="geometry">
            <mxPoint x="240" y="550" as="sourcePoint" />
            <mxPoint x="293" y="600" as="targetPoint" />
          </mxGeometry>
        </mxCell>
        <mxCell id="-2femNKr4ij-wPNgYkvE-146" value="" style="ellipse;whiteSpace=wrap;html=1;aspect=fixed;fillColor=#6d8764;fontColor=#ffffff;strokeColor=#3A5431;" parent="1" vertex="1">
          <mxGeometry x="280" y="535" width="20" height="20" as="geometry" />
        </mxCell>
        <mxCell id="1Lw4i4zbZHSfUQySB-gk-1" value="" style="endArrow=none;html=1;rounded=0;exitX=1;exitY=0.5;exitDx=0;exitDy=0;" parent="1" source="-2femNKr4ij-wPNgYkvE-20" edge="1">
          <mxGeometry width="50" height="50" relative="1" as="geometry">
            <mxPoint x="380" y="620" as="sourcePoint" />
            <mxPoint x="390" y="615" as="targetPoint" />
          </mxGeometry>
        </mxCell>
        <mxCell id="1Lw4i4zbZHSfUQySB-gk-3" value="" style="endArrow=none;html=1;rounded=0;entryX=0.5;entryY=1;entryDx=0;entryDy=0;" parent="1" source="-2femNKr4ij-wPNgYkvE-41" target="1Lw4i4zbZHSfUQySB-gk-2" edge="1">
          <mxGeometry width="50" height="50" relative="1" as="geometry">
            <mxPoint x="394" y="710" as="sourcePoint" />
            <mxPoint x="394" y="570" as="targetPoint" />
          </mxGeometry>
        </mxCell>
        <mxCell id="1Lw4i4zbZHSfUQySB-gk-2" value="" style="ellipse;whiteSpace=wrap;html=1;aspect=fixed;" parent="1" vertex="1">
          <mxGeometry x="384" y="605" width="20" height="20" as="geometry" />
        </mxCell>
        <mxCell id="1Lw4i4zbZHSfUQySB-gk-4" value="+" style="text;html=1;align=center;verticalAlign=middle;whiteSpace=wrap;rounded=0;" parent="1" vertex="1">
          <mxGeometry x="311" y="602.5" width="14" height="27.5" as="geometry" />
        </mxCell>
        <mxCell id="1Lw4i4zbZHSfUQySB-gk-5" value="" style="endArrow=none;html=1;rounded=0;entryX=0;entryY=0.5;entryDx=0;entryDy=0;fillColor=#e3c800;strokeColor=#B09500;exitX=0;exitY=0.5;exitDx=0;exitDy=0;" parent="1" source="-2femNKr4ij-wPNgYkvE-56" target="1Lw4i4zbZHSfUQySB-gk-4" edge="1">
          <mxGeometry width="50" height="50" relative="1" as="geometry">
            <mxPoint x="520" y="400" as="sourcePoint" />
            <mxPoint x="296" y="610" as="targetPoint" />
            <Array as="points">
              <mxPoint x="500" y="400" />
              <mxPoint x="500" y="580" />
              <mxPoint x="270" y="580" />
              <mxPoint x="270" y="616" />
            </Array>
          </mxGeometry>
        </mxCell>
        <mxCell id="1Lw4i4zbZHSfUQySB-gk-6" value="GND" style="text;html=1;align=center;verticalAlign=middle;whiteSpace=wrap;rounded=0;" parent="1" vertex="1">
          <mxGeometry x="728" y="370" width="26" height="20" as="geometry" />
        </mxCell>
        <mxCell id="1Lw4i4zbZHSfUQySB-gk-7" value="GND" style="text;html=1;align=center;verticalAlign=middle;whiteSpace=wrap;rounded=0;" parent="1" vertex="1">
          <mxGeometry x="728" y="390" width="26" height="20" as="geometry" />
        </mxCell>
        <mxCell id="1Lw4i4zbZHSfUQySB-gk-8" value="5V" style="text;html=1;align=center;verticalAlign=middle;whiteSpace=wrap;rounded=0;" parent="1" vertex="1">
          <mxGeometry x="728" y="410" width="26" height="20" as="geometry" />
        </mxCell>
        <mxCell id="1Lw4i4zbZHSfUQySB-gk-9" value="" style="endArrow=none;html=1;rounded=0;exitX=1;exitY=0.5;exitDx=0;exitDy=0;entryX=0.5;entryY=1;entryDx=0;entryDy=0;" parent="1" source="1Lw4i4zbZHSfUQySB-gk-6" target="-2femNKr4ij-wPNgYkvE-9" edge="1">
          <mxGeometry width="50" height="50" relative="1" as="geometry">
            <mxPoint x="690" y="350" as="sourcePoint" />
            <mxPoint x="320" y="100" as="targetPoint" />
            <Array as="points">
              <mxPoint x="790" y="380" />
              <mxPoint x="790" y="100" />
              <mxPoint x="394" y="100" />
            </Array>
          </mxGeometry>
        </mxCell>
        <mxCell id="1Lw4i4zbZHSfUQySB-gk-10" value="" style="endArrow=none;html=1;rounded=0;fillColor=#e51400;strokeColor=#B20000;exitX=1;exitY=0.5;exitDx=0;exitDy=0;" parent="1" source="1Lw4i4zbZHSfUQySB-gk-8" edge="1">
          <mxGeometry width="50" height="50" relative="1" as="geometry">
            <mxPoint x="820" y="422.5" as="sourcePoint" />
            <mxPoint x="440" y="80" as="targetPoint" />
            <Array as="points">
              <mxPoint x="810" y="420" />
              <mxPoint x="810" y="80" />
            </Array>
          </mxGeometry>
        </mxCell>
        <mxCell id="XQtKWVKU4zu3nfCW8F6k-1" value="VCC" style="text;html=1;align=center;verticalAlign=middle;whiteSpace=wrap;rounded=0;" parent="1" vertex="1">
          <mxGeometry x="113" y="990" width="34" height="20" as="geometry" />
        </mxCell>
        <mxCell id="XQtKWVKU4zu3nfCW8F6k-2" value="DATA" style="text;html=1;align=center;verticalAlign=middle;whiteSpace=wrap;rounded=0;" parent="1" vertex="1">
          <mxGeometry x="110" y="1010" width="37" height="20" as="geometry" />
        </mxCell>
        <mxCell id="XQtKWVKU4zu3nfCW8F6k-3" value="X" style="text;html=1;align=center;verticalAlign=middle;whiteSpace=wrap;rounded=0;" parent="1" vertex="1">
          <mxGeometry x="130" y="1030" width="14" height="20" as="geometry" />
        </mxCell>
        <mxCell id="XQtKWVKU4zu3nfCW8F6k-4" value="GND" style="text;html=1;align=center;verticalAlign=middle;whiteSpace=wrap;rounded=0;" parent="1" vertex="1">
          <mxGeometry x="110" y="1050" width="34" height="20" as="geometry" />
        </mxCell>
        <mxCell id="XQtKWVKU4zu3nfCW8F6k-5" value="" style="endArrow=none;html=1;rounded=0;fillColor=#e51400;strokeColor=#B20000;exitX=1;exitY=0.5;exitDx=0;exitDy=0;" parent="1" source="XQtKWVKU4zu3nfCW8F6k-1" edge="1">
          <mxGeometry width="50" height="50" relative="1" as="geometry">
            <mxPoint x="230" y="1155" as="sourcePoint" />
            <mxPoint x="440" y="1000" as="targetPoint" />
          </mxGeometry>
        </mxCell>
        <mxCell id="XQtKWVKU4zu3nfCW8F6k-7" value="" style="endArrow=none;html=1;rounded=0;entryX=0.5;entryY=1;entryDx=0;entryDy=0;fillColor=#e51400;strokeColor=#B20000;" parent="1" target="XQtKWVKU4zu3nfCW8F6k-6" edge="1">
          <mxGeometry width="50" height="50" relative="1" as="geometry">
            <mxPoint x="443" y="1070" as="sourcePoint" />
            <mxPoint x="444" y="830" as="targetPoint" />
          </mxGeometry>
        </mxCell>
        <mxCell id="XQtKWVKU4zu3nfCW8F6k-6" value="" style="ellipse;whiteSpace=wrap;html=1;fillColor=#a20025;fontColor=#ffffff;strokeColor=#6F0000;" parent="1" vertex="1">
          <mxGeometry x="432.5" y="990" width="21" height="20" as="geometry" />
        </mxCell>
        <mxCell id="XQtKWVKU4zu3nfCW8F6k-8" value="" style="endArrow=none;html=1;rounded=0;exitX=1;exitY=0.5;exitDx=0;exitDy=0;" parent="1" source="XQtKWVKU4zu3nfCW8F6k-4" edge="1">
          <mxGeometry width="50" height="50" relative="1" as="geometry">
            <mxPoint x="310" y="730" as="sourcePoint" />
            <mxPoint x="390" y="1060" as="targetPoint" />
          </mxGeometry>
        </mxCell>
        <mxCell id="XQtKWVKU4zu3nfCW8F6k-9" value="" style="ellipse;whiteSpace=wrap;html=1;aspect=fixed;" parent="1" vertex="1">
          <mxGeometry x="384" y="1050" width="20" height="20" as="geometry" />
        </mxCell>
        <mxCell id="XQtKWVKU4zu3nfCW8F6k-11" value="" style="endArrow=none;html=1;rounded=0;fillColor=#0050ef;strokeColor=#001DBC;entryX=1;entryY=0.5;entryDx=0;entryDy=0;exitX=0;exitY=0.5;exitDx=0;exitDy=0;" parent="1" source="-2femNKr4ij-wPNgYkvE-57" target="XQtKWVKU4zu3nfCW8F6k-2" edge="1">
          <mxGeometry width="50" height="50" relative="1" as="geometry">
            <mxPoint x="470" y="410" as="sourcePoint" />
            <mxPoint x="190" y="1019.29" as="targetPoint" />
            <Array as="points">
              <mxPoint x="470" y="420" />
              <mxPoint x="470" y="1020" />
            </Array>
          </mxGeometry>
        </mxCell>
        <mxCell id="XQtKWVKU4zu3nfCW8F6k-12" value="A5&lt;span style=&quot;color: rgba(0, 0, 0, 0); font-family: monospace; font-size: 0px; text-align: start; text-wrap: nowrap;&quot;&gt;%3CmxGraphModel%3E%3Croot%3E%3CmxCell%20id%3D%220%22%2F%3E%3CmxCell%20id%3D%221%22%20parent%3D%220%22%2F%3E%3CmxCell%20id%3D%222%22%20value%3D%22GND%22%20style%3D%22text%3Bhtml%3D1%3Balign%3Dcenter%3BverticalAlign%3Dmiddle%3BwhiteSpace%3Dwrap%3Brounded%3D0%3B%22%20vertex%3D%221%22%20parent%3D%221%22%3E%3CmxGeometry%20x%3D%22728%22%20y%3D%22370%22%20width%3D%2226%22%20height%3D%2220%22%20as%3D%22geometry%22%2F%3E%3C%2FmxCell%3E%3C%2Froot%3E%3C%2FmxGraphModel%3E&lt;/span&gt;" style="text;html=1;align=center;verticalAlign=middle;whiteSpace=wrap;rounded=0;" parent="1" vertex="1">
          <mxGeometry x="728" y="230" width="26" height="20" as="geometry" />
        </mxCell>
        <mxCell id="XQtKWVKU4zu3nfCW8F6k-13" value="A4&lt;span style=&quot;color: rgba(0, 0, 0, 0); font-family: monospace; font-size: 0px; text-align: start; text-wrap: nowrap;&quot;&gt;%3CmxGraphModel%3E%3Croot%3E%3CmxCell%20id%3D%220%22%2F%3E%3CmxCell%20id%3D%221%22%20parent%3D%220%22%2F%3E%3CmxCell%20id%3D%222%22%20value%3D%22GND%22%20style%3D%22text%3Bhtml%3D1%3Balign%3Dcenter%3BverticalAlign%3Dmiddle%3BwhiteSpace%3Dwrap%3Brounded%3D0%3B%22%20vertex%3D%221%22%20parent%3D%221%22%3E%3CmxGeometry%20x%3D%22728%22%20y%3D%22370%22%20width%3D%2226%22%20height%3D%2220%22%20as%3D%22geometry%22%2F%3E%3C%2FmxCell%3E%3C%2Froot%3E%3C%2FmxGraphModel%34&lt;/span&gt;" style="text;html=1;align=center;verticalAlign=middle;whiteSpace=wrap;rounded=0;" parent="1" vertex="1">
          <mxGeometry x="728" y="250" width="26" height="20" as="geometry" />
        </mxCell>
        <mxCell id="XQtKWVKU4zu3nfCW8F6k-14" value="A3&lt;span style=&quot;color: rgba(0, 0, 0, 0); font-family: monospace; font-size: 0px; text-align: start; text-wrap: nowrap;&quot;&gt;%3CmxGraphModel%3E%3Croot%3E%3CmxCell%20id%3D%220%22%2F%3E%3CmxCell%20id%3D%221%22%20parent%3D%220%22%2F%3E%3CmxCell%20id%3D%222%22%20value%3D%22GND%22%20style%3D%22text%3Bhtml%3D1%3Balign%3Dcenter%3BverticalAlign%3Dmiddle%3BwhiteSpace%3Dwrap%3Brounded%3D0%3B%22%20vertex%3D%221%22%20parent%3D%221%22%3E%3CmxGeometry%20x%3D%22728%22%20y%3D%22370%22%20width%3D%2226%22%20height%3D%2220%22%20as%3D%22geometry%22%2F%3E%3C%2FmxCell%3E%3C%2Froot%3E%3C%2FmxGraphModel%3E&lt;/span&gt;" style="text;html=1;align=center;verticalAlign=middle;whiteSpace=wrap;rounded=0;" parent="1" vertex="1">
          <mxGeometry x="728" y="270" width="26" height="20" as="geometry" />
        </mxCell>
        <mxCell id="XQtKWVKU4zu3nfCW8F6k-15" value="A2&lt;span style=&quot;color: rgba(0, 0, 0, 0); font-family: monospace; font-size: 0px; text-align: start; text-wrap: nowrap;&quot;&gt;%3CmxGraphModel%3E%3Croot%3E%3CmxCell%20id%3D%220%22%2F%3E%3CmxCell%20id%3D%221%22%20parent%3D%220%22%2F%3E%3CmxCell%20id%3D%222%22%20value%3D%22GND%22%20style%3D%22text%3Bhtml%3D1%3Balign%3Dcenter%3BverticalAlign%3Dmiddle%3BwhiteSpace%3Dwrap%3Brounded%3D0%3B%22%20vertex%3D%221%22%20parent%3D%221%22%3E%3CmxGeometry%20x%3D%22728%22%20y%3D%22370%22%20width%3D%2226%22%20height%3D%2220%22%20as%3D%22geometry%22%2F%3E%3C%2FmxCell%3E%3C%2Froot%3E%3C%2FmxGraphModel%3E&lt;/span&gt;" style="text;html=1;align=center;verticalAlign=middle;whiteSpace=wrap;rounded=0;" parent="1" vertex="1">
          <mxGeometry x="728" y="290" width="26" height="20" as="geometry" />
        </mxCell>
        <mxCell id="XQtKWVKU4zu3nfCW8F6k-16" value="A1&lt;span style=&quot;color: rgba(0, 0, 0, 0); font-family: monospace; font-size: 0px; text-align: start; text-wrap: nowrap;&quot;&gt;%3CmxGraphModel%3E%3Croot%3E%3CmxCell%20id%3D%220%22%2F%3E%3CmxCell%20id%3D%221%22%20parent%3D%220%22%2F%3E%3CmxCell%20id%3D%222%22%20value%3D%22GND%22%20style%3D%22text%3Bhtml%3D1%3Balign%3Dcenter%3BverticalAlign%3Dmiddle%3BwhiteSpace%3Dwrap%3Brounded%3D0%3B%22%20vertex%3D%221%22%20parent%3D%221%22%3E%3CmxGeometry%20x%3D%22728%22%20y%3D%22370%22%20width%3D%2226%22%20height%3D%2220%22%20as%3D%22geometry%22%2F%3E%3C%2FmxCell%3E%3C%2Froot%3E%3C%2FmxGraphModel%31&lt;/span&gt;" style="text;html=1;align=center;verticalAlign=middle;whiteSpace=wrap;rounded=0;" parent="1" vertex="1">
          <mxGeometry x="728" y="310" width="26" height="20" as="geometry" />
        </mxCell>
        <mxCell id="XQtKWVKU4zu3nfCW8F6k-17" value="A0&lt;span style=&quot;color: rgba(0, 0, 0, 0); font-family: monospace; font-size: 0px; text-align: start; text-wrap: nowrap;&quot;&gt;%3CmxGraphModel%3E%3Croot%3E%3CmxCell%20id%3D%220%22%2F%3E%3CmxCell%20id%3D%221%22%20parent%3D%220%22%2F%3E%3CmxCell%20id%3D%222%22%20value%3D%22GND%22%20style%3D%22text%3Bhtml%3D1%3Balign%3Dcenter%3BverticalAlign%3Dmiddle%3BwhiteSpace%3Dwrap%3Brounded%3D0%3B%22%20vertex%3D%221%22%20parent%3D%221%22%3E%3CmxGeometry%20x%3D%22728%22%20y%3D%22370%22%20width%3D%2226%22%20height%3D%2220%22%20as%3D%22geometry%22%2F%3E%3C%2FmxCell%3E%3C%2Froot%3E%3C%2FmxGraphModel%31&lt;/span&gt;" style="text;html=1;align=center;verticalAlign=middle;whiteSpace=wrap;rounded=0;" parent="1" vertex="1">
          <mxGeometry x="728" y="330" width="26" height="20" as="geometry" />
        </mxCell>
        <mxCell id="XQtKWVKU4zu3nfCW8F6k-18" value="Vin" style="text;html=1;align=center;verticalAlign=middle;whiteSpace=wrap;rounded=0;" parent="1" vertex="1">
          <mxGeometry x="728" y="350" width="26" height="20" as="geometry" />
        </mxCell>
        <mxCell id="XQtKWVKU4zu3nfCW8F6k-19" value="3.3V" style="text;html=1;align=center;verticalAlign=middle;whiteSpace=wrap;rounded=0;" parent="1" vertex="1">
          <mxGeometry x="720" y="430" width="34" height="20" as="geometry" />
        </mxCell>
        <mxCell id="XQtKWVKU4zu3nfCW8F6k-20" value="RESET" style="text;html=1;align=center;verticalAlign=middle;whiteSpace=wrap;rounded=0;" parent="1" vertex="1">
          <mxGeometry x="710" y="450" width="44" height="20" as="geometry" />
        </mxCell>
        <mxCell id="XQtKWVKU4zu3nfCW8F6k-21" value="IOREF" style="text;html=1;align=center;verticalAlign=middle;whiteSpace=wrap;rounded=0;" parent="1" vertex="1">
          <mxGeometry x="710" y="470" width="44" height="20" as="geometry" />
        </mxCell>
        <mxCell id="XQtKWVKU4zu3nfCW8F6k-22" value="SDA" style="text;html=1;align=center;verticalAlign=middle;whiteSpace=wrap;rounded=0;" parent="1" vertex="1">
          <mxGeometry x="554" y="550" width="36" height="20" as="geometry" />
        </mxCell>
        <mxCell id="XQtKWVKU4zu3nfCW8F6k-23" value="SCL" style="text;html=1;align=center;verticalAlign=middle;whiteSpace=wrap;rounded=0;" parent="1" vertex="1">
          <mxGeometry x="554" y="570" width="36" height="20" as="geometry" />
        </mxCell>
        <mxCell id="kfQRFYKegN1roRXJEqxX-1" value="RST" style="text;html=1;align=center;verticalAlign=middle;whiteSpace=wrap;rounded=0;" parent="1" vertex="1">
          <mxGeometry x="570" y="945" width="60" height="30" as="geometry" />
        </mxCell>
        <mxCell id="kfQRFYKegN1roRXJEqxX-2" value="TXD" style="text;html=1;align=center;verticalAlign=middle;whiteSpace=wrap;rounded=0;" parent="1" vertex="1">
          <mxGeometry x="610" y="945" width="60" height="30" as="geometry" />
        </mxCell>
        <mxCell id="kfQRFYKegN1roRXJEqxX-3" value="RXD" style="text;html=1;align=center;verticalAlign=middle;whiteSpace=wrap;rounded=0;" parent="1" vertex="1">
          <mxGeometry x="650" y="945" width="60" height="30" as="geometry" />
        </mxCell>
        <mxCell id="kfQRFYKegN1roRXJEqxX-4" value="SET" style="text;html=1;align=center;verticalAlign=middle;whiteSpace=wrap;rounded=0;" parent="1" vertex="1">
          <mxGeometry x="694" y="945" width="60" height="30" as="geometry" />
        </mxCell>
        <mxCell id="kfQRFYKegN1roRXJEqxX-5" value="GND" style="text;html=1;align=center;verticalAlign=middle;whiteSpace=wrap;rounded=0;" parent="1" vertex="1">
          <mxGeometry x="738" y="945" width="60" height="30" as="geometry" />
        </mxCell>
        <mxCell id="kfQRFYKegN1roRXJEqxX-6" value="VCC" style="text;html=1;align=center;verticalAlign=middle;whiteSpace=wrap;rounded=0;" parent="1" vertex="1">
          <mxGeometry x="790" y="945" width="60" height="30" as="geometry" />
        </mxCell>
        <mxCell id="kfQRFYKegN1roRXJEqxX-7" value="" style="endArrow=none;html=1;rounded=0;fillColor=#e51400;strokeColor=#B20000;entryX=0.5;entryY=0;entryDx=0;entryDy=0;" parent="1" target="kfQRFYKegN1roRXJEqxX-6" edge="1">
          <mxGeometry width="50" height="50" relative="1" as="geometry">
            <mxPoint x="440" y="890" as="sourcePoint" />
            <mxPoint x="840" y="890" as="targetPoint" />
            <Array as="points">
              <mxPoint x="820" y="890" />
            </Array>
          </mxGeometry>
        </mxCell>
        <mxCell id="kfQRFYKegN1roRXJEqxX-9" value="" style="endArrow=none;html=1;rounded=0;entryX=0.5;entryY=1;entryDx=0;entryDy=0;fillColor=#e51400;strokeColor=#B20000;" parent="1" source="XQtKWVKU4zu3nfCW8F6k-6" target="kfQRFYKegN1roRXJEqxX-8" edge="1">
          <mxGeometry width="50" height="50" relative="1" as="geometry">
            <mxPoint x="443" y="990" as="sourcePoint" />
            <mxPoint x="444" y="830" as="targetPoint" />
          </mxGeometry>
        </mxCell>
        <mxCell id="kfQRFYKegN1roRXJEqxX-8" value="" style="ellipse;whiteSpace=wrap;html=1;fillColor=#a20025;fontColor=#ffffff;strokeColor=#6F0000;" parent="1" vertex="1">
          <mxGeometry x="433.5" y="880" width="21" height="20" as="geometry" />
        </mxCell>
        <mxCell id="kfQRFYKegN1roRXJEqxX-10" value="" style="endArrow=none;html=1;rounded=0;entryX=0.5;entryY=0;entryDx=0;entryDy=0;" parent="1" target="kfQRFYKegN1roRXJEqxX-5" edge="1">
          <mxGeometry width="50" height="50" relative="1" as="geometry">
            <mxPoint x="390" y="910" as="sourcePoint" />
            <mxPoint x="770" y="940" as="targetPoint" />
            <Array as="points">
              <mxPoint x="768" y="910" />
            </Array>
          </mxGeometry>
        </mxCell>
        <mxCell id="kfQRFYKegN1roRXJEqxX-12" value="" style="endArrow=none;html=1;rounded=0;entryX=0.5;entryY=1;entryDx=0;entryDy=0;" parent="1" source="XQtKWVKU4zu3nfCW8F6k-9" target="kfQRFYKegN1roRXJEqxX-11" edge="1">
          <mxGeometry width="50" height="50" relative="1" as="geometry">
            <mxPoint x="394" y="1050" as="sourcePoint" />
            <mxPoint x="394" y="730" as="targetPoint" />
          </mxGeometry>
        </mxCell>
        <mxCell id="kfQRFYKegN1roRXJEqxX-11" value="" style="ellipse;whiteSpace=wrap;html=1;aspect=fixed;" parent="1" vertex="1">
          <mxGeometry x="384" y="900" width="20" height="20" as="geometry" />
        </mxCell>
        <mxCell id="kfQRFYKegN1roRXJEqxX-13" value="" style="endArrow=none;html=1;rounded=0;exitX=0.5;exitY=0;exitDx=0;exitDy=0;fillColor=#6a00ff;strokeColor=#3700CC;entryX=0;entryY=0.5;entryDx=0;entryDy=0;" parent="1" source="kfQRFYKegN1roRXJEqxX-3" target="-2femNKr4ij-wPNgYkvE-61" edge="1">
          <mxGeometry width="50" height="50" relative="1" as="geometry">
            <mxPoint x="670" y="900" as="sourcePoint" />
            <mxPoint x="520" y="660" as="targetPoint" />
            <Array as="points">
              <mxPoint x="680" y="660" />
              <mxPoint x="530" y="660" />
              <mxPoint x="530" y="500" />
            </Array>
          </mxGeometry>
        </mxCell>
        <mxCell id="kfQRFYKegN1roRXJEqxX-14" value="" style="endArrow=none;html=1;rounded=0;fillColor=#6a00ff;strokeColor=#3700CC;exitX=0.5;exitY=0;exitDx=0;exitDy=0;entryX=0;entryY=0.5;entryDx=0;entryDy=0;" parent="1" source="kfQRFYKegN1roRXJEqxX-2" target="-2femNKr4ij-wPNgYkvE-58" edge="1">
          <mxGeometry width="50" height="50" relative="1" as="geometry">
            <mxPoint x="600" y="830" as="sourcePoint" />
            <mxPoint x="500" y="680" as="targetPoint" />
            <Array as="points">
              <mxPoint x="640" y="680" />
              <mxPoint x="520" y="680" />
              <mxPoint x="520" y="440" />
            </Array>
          </mxGeometry>
        </mxCell>
      </root>
    </mxGraphModel>
  </diagram>
</mxfile>
